{"title":"Mission: Impossible 1988 TV Show 4Episodes(dvdripmp4)","uid":8393979,"size":2975096075,"categoryP":"video","categoryS":"tv_shows","magnet":"?xt=urn:btih:9e73721866cd43bf7bd3566279e25a096bcf180e&amp;dn=Mission%3A+Impossible+1988+TV+Show+4Episodes%28dvdripmp4%29&amp;tr=udp%3A%2F%2Ftracker.openbittorrent.com%3A80&amp;tr=udp%3A%2F%2Fopen.demonii.com%3A1337&amp;tr=udp%3A%2F%2Ftracker.coppersurfer.tk%3A6969&amp;tr=udp%3A%2F%2Fexodus.desync.com%3A6969","seeders":1,"leechers":2,"uploader":"russell887","files":4,"time":1366514111,"description":"MISSION:IMPOSSIBLE  The 1988 TV SEASON  4 Episodes \n\nEpisodes: \n\n#1- The Killer \nWhen Jim Phelp's protege is murdered,he comes out of retirement to catch the killer and organize a new team of IMF agent's. \n\n#2- The System \nTo shut down a major crime syndicate, the team tries to turn a high profile mobster against his boss. \n\n#3- Holagrams \nThe team must try to extradite an international drug lord who's running a world wide trafficking ring. \n\n#4- The Condemned \nThe team works to free a former IMF agent who was falsely imprisoned for murder, and now faces execution. This mission hit's close to home, as the agent is Jim's ex-colleague and Grant's father, Barney Collier.\n\nINFO: \n\nFormat                                   : MPEG-4\nFormat profile                           : Base Media / Version 2\nCodec ID                                 : mp42\nOverall bit rate mode                    : Variable\nOverall bit rate                         : 2 061 Kbps\n\nVideo\nID                                       : 1\nFormat                                   : AVC\nFormat/Info                              : Advanced Video Codec\nFormat profile                           : &lt;a class=&quot;__cf_email__&quot; href=&quot;/cdn-cgi/l/email-protection&quot; data-cfemail=&quot;733e121a1d333f405d43&quot;&gt;[email&amp;#160;protected]&lt;/a&gt;&lt;script cf-hash='f9e31' type=&quot;text/javascript&quot;&gt;\n/* &lt;![CDATA[ */!function(){try{var t=&quot;currentScript&quot;in document?document.currentScript:function(){for(var t=document.getElementsByTagName(&quot;script&quot;),e=t.length;e--;)if(t[e].getAttribute(&quot;cf-hash&quot;))return t[e]}();if(t&amp;&amp;t.previousSibling){var e,r,n,i,c=t.previousSibling,a=c.getAttribute(&quot;data-cfemail&quot;);if(a){for(e=&quot;&quot;,r=parseInt(a.substr(0,2),16),n=2;a.length-n;n+=2)i=parseInt(a.substr(n,2),16)^r,e+=String.fromCharCode(i);e=document.createTextNode(e),c.parentNode.replaceChild(e,c)}}}catch(u){}}();/* ]]&gt; */&lt;/script&gt;\nFormat settings, CABAC                   : Yes\nFormat settings, ReFrames                : 2 frames\nCodec ID                                 : avc1\nCodec ID/Info                            : Advanced Video Coding\nDuration                                 : 47mn 50s\nBit rate mode                            : Variable\nBit rate                                 : 1 860 Kbps\nMaximum bit rate                         : 7 343 Kbps\nWidth                                    : 720 pixels\nHeight                                   : 480 pixels\nDisplay aspect ratio                     : 4:3\nOriginal display aspect ratio            : 4:3\nFrame rate mode                          : Constant\nFrame rate                               : 29.970 fps\nStandard                                 : NTSC\nColor space                              : YUV\nChroma subsampling                       : 4:2:0\nBit depth                                : 8 bits\nScan type                                : Progressive\nBits/(Pixel*Frame)                       : 0.180\nStream size                              : 637 MiB (90%)\nLanguage                                 : English\n\nAudio\nID                                       : 2\nFormat                                   : AAC\nFormat/Info                              : Advanced Audio Codec\nFormat profile                           : LC\nCodec ID                                 : 40\nBit rate mode                            : Variable\nBit rate                                 : 192 Kbps\nMaximum bit rate                         : 234 Kbps\nChannel(s)                               : 2 channels\nChannel positions                        : Front: L R\nSampling rate                            : 48.0 KHz\nCompression mode                         : Lossy\nStream size                              : 65.7 MiB (9%)\nTitle                                    : eng\nLanguage                                 : English\n\nSize: 2.77 GB  ","torrent":{"xt":"urn:btih:9e73721866cd43bf7bd3566279e25a096bcf180e","amp;dn":"Mission%3A+Impossible+1988+TV+Show+4Episodes%28dvdripmp4%29","amp;tr":["udp%3A%2F%2Ftracker.openbittorrent.com%3A80","udp%3A%2F%2Fopen.demonii.com%3A1337","udp%3A%2F%2Ftracker.coppersurfer.tk%3A6969","udp%3A%2F%2Fexodus.desync.com%3A6969"],"infoHash":"9e73721866cd43bf7bd3566279e25a096bcf180e","infoHashBuffer":{"type":"Buffer","data":[158,115,114,24,102,205,67,191,123,211,86,98,121,226,90,9,107,207,24,14]},"announce":[],"urlList":[]}}